<?xml version="1.0" encoding="UTF-8"?> <!-- Generator: Adobe Illustrator 24.1.1, SVG Export Plug-In . SVG Version: 6.00 Build 0) --> <svg xmlns="http://www.w3.org/2000/svg" xmlns:xlink="http://www.w3.org/1999/xlink" version="1.1" id="Слой_1" x="0px" y="0px" width="1920px" height="1080px" viewBox="0 0 1920 1080" style="enable-background:new 0 0 1920 1080;" xml:space="preserve"> <style type="text/css"> .st0{fill:#1074EE;} .st1{fill:#62AACC;} .st2{fill:#F8BF78;} .st3{fill:#1A0B36;} .st4{fill:#FFFFFF;} .st5{fill:#60AFE9;} .st6{fill:#283C59;} .st7{fill:#1F2E45;} .st8{fill:#76838C;} .st9{opacity:0.5;fill:#FFFFFF;} .st10{fill:#8EC549;} </style> <rect x="-2.8" y="-58" class="st0" width="1936.5" height="1259.2"></rect> <g> <polygon class="st1" points="262.6,434.6 17.7,434.6 17.7,130.4 386.4,130.4 386.4,288.1 381.6,288.1 381.6,135.1 22.5,135.1 22.5,429.9 262.6,429.9 "></polygon> </g> <g> <path class="st2" d="M230.4,273.7c-14.9,0-27.1-12.1-27.1-27.1c0-14.9,12.1-27.1,27.1-27.1c14.9,0,27.1,12.1,27.1,27.1 C257.5,261.6,245.3,273.7,230.4,273.7z M230.4,224.4c-12.3,0-22.3,10-22.3,22.3s10,22.3,22.3,22.3c12.3,0,22.3-10,22.3-22.3 S242.7,224.4,230.4,224.4z"></path> </g> <g> <path class="st1" d="M358.1,374.3c-30.3-51.4-73-44.9-110.7-39.3c-15.6,2.3-30.3,4.6-42.3,2c-19.3-4.1-31.6-22-43.5-39.3 c-13.1-19.1-26.7-38.9-49.9-41.9c-35.8-4.7-62.5,40.8-65.5,50.8l-4.6-1.4c3.7-12.4,31.9-59.2,70.7-54.2c25.4,3.3,39.6,24,53.3,43.9 c11.9,17.3,23.1,33.6,40.5,37.3c11.1,2.4,25.4,0.2,40.6-2.1c37.2-5.6,83.5-12.6,115.5,41.6L358.1,374.3z"></path> </g> <g> <path class="st1" d="M362.5,410.7H41.6V154.3h320.9V410.7z M46.4,406h311.4V159H46.4V406z"></path> </g> <g> <g> <polygon class="st1" points="1517.6,30 396,30 396,25.2 1512.8,25.2 1512.8,10.9 396,10.9 396,6.1 1517.6,6.1 "></polygon> </g> <rect x="411" y="48.5" class="st2" width="1094.6" height="665.3"></rect> <g> <rect x="454.3" y="67.1" class="st3" width="1008.1" height="12.7"></rect> <rect x="454.3" y="88.6" class="st3" width="1008.1" height="12.7"></rect> <rect x="454.3" y="110.1" class="st3" width="1008.1" height="12.7"></rect> <rect x="454.3" y="131.6" class="st3" width="1008.1" height="12.7"></rect> <rect x="454.3" y="153.1" class="st3" width="1008.1" height="12.7"></rect> <rect x="454.3" y="174.6" class="st3" width="1008.1" height="12.7"></rect> <rect x="454.3" y="196.1" class="st3" width="1008.1" height="12.7"></rect> <rect x="454.3" y="217.6" class="st3" width="1008.1" height="12.7"></rect> </g> <rect x="424.3" y="669.5" class="st4" width="1064.6" height="26.1"></rect> <g> <path class="st3" d="M1491.3,699.5H425.4V62.9h1065.9V699.5z M430.2,694.7h1056.4V67.6H430.2V694.7z"></path> </g> <g> <rect x="484" y="67.1" class="st3" width="4.8" height="309"></rect> </g> <path class="st3" d="M486.5,423.1h-0.1c-3.8,0-6.8-3-6.8-6.8v-80.2c0-3.8,3-6.8,6.8-6.8h0.1c3.8,0,6.8,3,6.8,6.8v80.2 C493.3,420,490.2,423.1,486.5,423.1z"></path> </g> <g> <g> <path class="st4" d="M1658,489.3c-108.9,0-197.6-88.6-197.6-197.6c0-108.9,88.6-197.6,197.6-197.6c108.9,0,197.6,88.6,197.6,197.6 C1855.6,400.7,1766.9,489.3,1658,489.3z M1658,99c-106.3,0-192.8,86.5-192.8,192.8s86.5,192.8,192.8,192.8 c106.3,0,192.8-86.5,192.8-192.8S1764.3,99,1658,99z"></path> </g> <g> <path class="st4" d="M1658,470c-98.3,0-178.3-80-178.3-178.3c0-98.3,80-178.3,178.3-178.3c98.3,0,178.3,80,178.3,178.3 C1836.3,390,1756.3,470,1658,470z M1658,118.3c-95.7,0-173.5,77.8-173.5,173.5c0,95.7,77.8,173.5,173.5,173.5 c95.7,0,173.5-77.8,173.5-173.5C1831.5,196.1,1753.7,118.3,1658,118.3z"></path> </g> <g> <rect x="1655.6" y="128.8" class="st4" width="4.8" height="25.8"></rect> </g> <g> <rect x="1580.6" y="148.9" transform="matrix(0.866 -0.5 0.5 0.866 131.2196 813.2386)" class="st4" width="4.8" height="25.8"></rect> </g> <g> <rect x="1525.7" y="203.8" transform="matrix(0.5 -0.866 0.866 0.5 576.3994 1431.7228)" class="st4" width="4.8" height="25.8"></rect> </g> <g> <rect x="1495" y="289.3" class="st4" width="25.8" height="4.8"></rect> </g> <g> <rect x="1515.1" y="364.4" transform="matrix(0.8661 -0.4999 0.4999 0.8661 21.3008 813.0291)" class="st4" width="25.8" height="4.8"></rect> </g> <g> <rect x="1570.1" y="419.3" transform="matrix(0.4999 -0.8661 0.8661 0.4999 426.3989 1581.8354)" class="st4" width="25.8" height="4.8"></rect> </g> <g> <rect x="1655.6" y="428.9" class="st4" width="4.8" height="25.8"></rect> </g> <g> <rect x="1730.6" y="408.8" transform="matrix(0.866 -0.5 0.5 0.866 21.3642 923.09)" class="st4" width="4.8" height="25.8"></rect> </g> <g> <rect x="1785.6" y="353.9" transform="matrix(0.5 -0.866 0.866 0.5 576.369 1731.8035)" class="st4" width="4.8" height="25.8"></rect> </g> <g> <rect x="1795.1" y="289.3" class="st4" width="25.8" height="4.8"></rect> </g> <g> <rect x="1775" y="214.3" transform="matrix(0.8661 -0.4999 0.4999 0.8661 131.1232 922.8617)" class="st4" width="25.8" height="4.8"></rect> </g> <g> <rect x="1720.1" y="159.4" transform="matrix(0.4999 -0.8661 0.8661 0.4999 726.524 1581.8229)" class="st4" width="25.8" height="4.8"></rect> </g> <g> <path class="st4" d="M1710.9,382.5h-99.2v-38.9h99.2V382.5z M1616.5,377.7h89.6v-29.3h-89.6V377.7z"></path> </g> <g> <rect x="1601.1" y="199.6" transform="matrix(0.4825 -0.8759 0.8759 0.4825 600.6417 1540.0311)" class="st2" width="4.8" height="124.4"></rect> </g> <g> <polygon class="st4" points="1745.1,249.3 1650.9,279.3 1654,289.2 1735.2,263.3 1737.7,271.3 1656.6,297.1 1659.7,307 1753.9,277 "></polygon> <polygon class="st4" points="1563.2,191.2 1661.9,313.4 1667.4,309 1577,197 1585,190.5 1675.4,302.5 1680.9,298 1582.3,175.8 "></polygon> <ellipse transform="matrix(0.8606 -0.5092 0.5092 0.8606 83.0915 886.6371)" class="st4" cx="1661.3" cy="291.5" rx="21.9" ry="21.9"></ellipse> <g> <path class="st3" d="M1661.3,307.3c-8.7,0-15.8-7.1-15.8-15.8c0-8.7,7.1-15.8,15.8-15.8c8.7,0,15.8,7.1,15.8,15.8 C1677.1,300.2,1670,307.3,1661.3,307.3z M1661.3,280.5c-6.1,0-11,4.9-11,11c0,6.1,4.9,11,11,11c6.1,0,11-4.9,11-11 C1672.3,285.5,1667.4,280.5,1661.3,280.5z"></path> </g> </g> </g> <g> <rect x="87.9" y="1043.1" class="st3" width="1785.2" height="54.9"></rect> <polygon class="st5" points="1895.6,1032.6 56.7,1032.6 299.2,815.6 1653.2,815.6 "></polygon> <rect x="56.7" y="1032.6" class="st6" width="1838.8" height="21.5"></rect> <path class="st4" d="M222.1,1003c106.1-123.9,123.8-122.7,219-149.1c4.3-1.2,8.7-2.6,12.9-4.3c19.6-7.8,35.2-19.7,46.2-33.9H299.2 L56.7,1032.6h133.2C202.1,1023.7,212.9,1013.8,222.1,1003z"></path> <g> <polygon class="st5" points="1772,1159.1 1230.7,1159.1 1230.7,1154.3 1767.2,1154.3 1767.2,1066.8 1230.7,1066.8 1230.7,1062.1 1772,1062.1 "></polygon> </g> <g> <rect x="111.7" y="1079" class="st5" width="4.8" height="77.7"></rect> </g> </g> <g> <path class="st3" d="M1381.9,1000.1c-12.1-13.2-23-35.7-16.4-38.3c6.6-2.6,45.5-6.9,59.2,0s33.3,34.6,21.1,45.5 C1433.7,1018.1,1399.1,1018.9,1381.9,1000.1z"></path> <path class="st3" d="M1386.3,1009.1c-12.1-13.2-23-35.7-16.4-38.3c6.6-2.6,45.5-6.9,59.2,0c13.7,6.9,33.3,34.6,21.1,45.5 C1438.1,1027,1403.5,1027.8,1386.3,1009.1z"></path> <path class="st4" d="M1381,995.8c-12.5-13.7-23.8-36.9-17-39.7s47-7.1,61.3,0s34.5,35.8,21.9,47.1 C1434.7,1014.4,1398.8,1015.2,1381,995.8z"></path> <path class="st5" d="M1450.8,989.9c-0.5,2.4-1.7,4.5-3.6,6.2c-12.6,11.2-48.4,12-66.2-7.4c-8.3-9.1-16.1-22.5-18.4-31.2 c-3.3,5.7,7,26,18.4,38.3c17.8,19.4,53.6,18.6,66.2,7.4C1450.9,999.9,1451.8,995.2,1450.8,989.9z"></path> </g> <g> <path class="st3" d="M457.7,870.6c-49.4,8.4-49.3,10.3-59.1,19c-0.4,0.4-0.9,0.7-1.5,1.1c-7.2,4.4-23.2,4.4-35.7,0.3 c-12-3.9-17.5-10.4-12.2-15c0.4-0.4,0.9-0.7,1.4-1c12-7.3,15.5-8.1,12.5-28.6c-0.6-4.1,0.9-8.3,5-12.5c14.2-14.3,55.4-22.4,93-15.4 c41.7,7.8,52.7,28.6,25.1,43.1C478.4,865.8,468.4,868.7,457.7,870.6z"></path> <path class="st3" d="M363.3,685.9v158.3c0,9.4,30.9,17,69,17s69-7.6,69-17V685.9H363.3z"></path> <path class="st4" d="M363.3,685.9c0,9.4,30.9,17,69,17s69-7.6,69-17c0-9.4-30.9-17-69-17S363.3,676.5,363.3,685.9z"></path> <path class="st3" d="M493.3,685.9c0,4.9-9.5,9.3-24.3,12c-5.1,0.9-10.8,1.7-16.9,2.2c-2,0.2-4.1,0.3-6.1,0.4 c-4.4,0.3-8.9,0.4-13.6,0.4c-2.9,0-5.8,0-8.6-0.1c-4.6-0.2-9.1-0.5-13.3-0.9c-3.2-0.3-6.2-0.7-9.1-1.1c-18-2.6-30-7.4-30-12.9 c0-4.9,9.5-9.2,24.2-12c2.3-0.4,4.8-0.8,7.4-1.2c0.4,0,0.7-0.1,1.1-0.1c8.5-1.1,18.1-1.7,28.3-1.7c2.3,0,4.5,0,6.7,0.1 c6.4,0.2,12.5,0.6,18.1,1.2c3.5,0.4,6.7,0.8,9.8,1.4c2.2,0.4,4.3,0.8,6.2,1.2C485.5,677.5,493.3,681.5,493.3,685.9z"></path> <path class="st5" d="M463,701.1c-1,4.3-1.3,8.8-0.6,13.4c0.2,1.4,0.5,2.8,0.9,4.1c8.4,29.3,11.8,33.5-7,85.4 c-3.5,9.6-4.7,20.1-3,30.9c1.4,9,4.8,17.3,9.5,24.5c22.7-2.8,38.4-8.5,38.4-15.2V685.9C501.3,692.6,485.7,698.3,463,701.1z"></path> <path class="st2" d="M432.3,819.2c-38.1,0-69-7.6-69-17V823c0,9.4,30.9,17,69,17s69-7.6,69-17v-20.8 C501.3,811.6,470.4,819.2,432.3,819.2z"></path> <path class="st4" d="M477.6,815c-1.4,4.2-3.1,8.9-4.9,13.9c-1,2.7-1.8,5.4-2.4,8.2c18.7-3,31-8.3,31-14.2v-20.8 C501.3,807.4,492.1,811.9,477.6,815z"></path> <g> <path class="st4" d="M439,671l-14.2-60.6L404,521.2l-33.5,7.8l-8.4,1.9l33.4,142.9l5.8,24.9c2.9,0.4,5.9,0.8,9.1,1.1 c4.2,0.4,8.7,0.7,13.3,0.9c2.8,0.1,5.7,0.1,8.6,0.1c4.7,0,9.2-0.1,13.6-0.4L439,671z M385.3,535.8c4.1-1,8.2,1.6,9.1,5.7 c0.9,4.1-1.6,8.2-5.7,9.1c-4.1,1-8.2-1.6-9.1-5.7C378.7,540.8,381.2,536.7,385.3,535.8z"></path> <path class="st5" d="M410.4,699.9c-3.2-0.3-6.2-0.7-9.1-1.1l-5.8-24.9L362.1,531l8.4-1.9l28.9,123.6l4.7,19.9l1.2,5L410.4,699.9z"></path> </g> <g> <path class="st6" d="M490.7,579l-0.9,4.8l-0.1,0.7l-13.1,71.8l-3.4,18.5l-0.7,3.6l-3.6,19.5c-5.1,0.9-10.8,1.7-16.9,2.2l5.1-27.9 l2.5-13.4l1-5.4l2.8-15.5l10.3-56.3l1-5.5l6,1.1l1,0.2L490.7,579z"></path> <path class="st3" d="M463.4,637.9l-3.8,20.9c1.5,8,6.2,15.1,13,19.6l17.3-94.5c-3.4,2.4-6,6.1-6.8,10.6c-0.1,0.7-0.2,1.4-0.2,2 c-0.8,14.7,0,17.2-16.9,37.9C465,635.4,464.2,636.6,463.4,637.9z"></path> <path class="st5" d="M485.1,565.3l-0.2,0c-5.4-1-10.6,2.6-11.6,8l-14.3,78.6c-0.2,1.1,4.1,2.7,9.6,3.7c5.5,1,10.1,1,10.3-0.1 l14.3-78.6C494.1,571.5,490.5,566.2,485.1,565.3z"></path> <path class="st6" d="M466.4,655.2l15.9-87.1l-5.3-1c-1.9,1.5-3.3,3.6-3.8,6.1l-14.3,78.6C458.7,652.8,461.9,654.2,466.4,655.2z"></path> <path class="st5" d="M485.1,565.3l-0.2,0c-5.4-1-10.6,2.6-11.6,8l-1.4,7.4c1.5,1,5.3,2.3,9.7,3.1c4.5,0.8,8.4,1,10.2,0.5l1.4-7.4 C494.1,571.5,490.5,566.2,485.1,565.3z"></path> <path class="st4" d="M481.6,583.8c4.5,0.8,8.4,1,10.2,0.5l1.4-7.4c0.7-4.1-1.1-8-4.3-10.1c-0.7,0.9-1.4,1.8-2.2,2.7 c-3.3,4-5.7,8.7-7.1,13.9C480.2,583.5,480.9,583.6,481.6,583.8z"></path> </g> </g> <g> <path class="st3" d="M511.2,997H371.1c-5,0-6.8-1.9-4.2-4.2l108.3-94.5c1.4-1.2,5.5-2.2,9.1-2.2h101.2c3.6,0,5.8,1,4.9,2.2 l-67.3,94.5C521.6,995.1,516.2,997,511.2,997z"></path> <path class="st3" d="M509.5,975.3H369.4c-5,0-6.8-1.9-4.2-4.2l108.3-94.5c1.4-1.2,5.5-2.2,9.1-2.2h101.2c3.6,0,5.8,1,4.9,2.2 l-67.3,94.5C519.8,973.4,514.5,975.3,509.5,975.3z"></path> <polygon class="st3" points="522,960.7 579.2,882.6 472.1,882.6 384,960.7 "></polygon> <path class="st4" d="M583.9,874.4h-22l-0.1,0.1c-2.5,3.1-8.4,5.9-16,8.1h33.5L522,960.7h-94.8c-11.2,3.6-21.1,8.7-27.1,14.4 l-0.2,0.2h39.5h70.1c5,0,10.4-1.9,12-4.2l67.3-94.5C589.7,875.4,587.5,874.4,583.9,874.4z"></path> <path class="st1" d="M526.3,878.4c-0.5,0.5-1.9,0.8-3.3,0.8c-1.3,0-2.1-0.4-1.6-0.8c0.5-0.5,1.9-0.8,3.2-0.8S526.8,878,526.3,878.4 z"></path> <polygon class="st2" points="573.2,887.6 468.7,887.6 473.4,883.4 576.3,883.4 "></polygon> <polygon class="st2" points="520,959.4 388.4,959.4 395.9,952.7 525,952.7 "></polygon> <polygon class="st5" points="459.8,951.7 397.1,951.7 423.1,928.3 481.6,928.3 "></polygon> <polygon class="st5" points="482.6,927.3 424.3,927.3 446.9,907.1 501.5,907.1 "></polygon> <polygon class="st5" points="502.3,906.2 447.9,906.2 467.7,888.5 518.8,888.5 "></polygon> <polygon class="st5" points="526,951.7 463.3,951.7 484.8,928.3 543.3,928.3 "></polygon> <polygon class="st5" points="544.1,927.3 485.8,927.3 504.5,907.1 559,907.1 "></polygon> <polygon class="st5" points="559.7,906.2 505.3,906.2 521.6,888.5 572.7,888.5 "></polygon> <path class="st6" d="M588.8,876.6l-67.3,94.5c-1.7,2.3-7,4.2-12,4.2H369.4c-3.5,0-5.4-0.9-5.4-2.3c0,0,0,16.4,0,16.4 c-0.2,1.4,1.8,2.5,5.4,2.5h140.1c5,0,10.4-1.9,12-4.2l67.3-94.5c0.2-0.2,0.2-0.5,0.2-0.7v-16.2 C588.9,876.4,588.9,876.5,588.8,876.6z"></path> <path class="st3" d="M399.4,983.4c0,0.9-0.8,1.7-1.7,1.7s-1.7-0.8-1.7-1.7c0-0.9,0.8-1.7,1.7-1.7S399.4,982.5,399.4,983.4z M404.3,981.7c-0.9,0-1.7,0.8-1.7,1.7c0,0.9,0.8,1.7,1.7,1.7s1.7-0.8,1.7-1.7C406,982.5,405.3,981.7,404.3,981.7z M411,981.7 c-0.9,0-1.7,0.8-1.7,1.7c0,0.9,0.8,1.7,1.7,1.7c0.9,0,1.7-0.8,1.7-1.7C412.7,982.5,411.9,981.7,411,981.7z M417.6,981.7 c-0.9,0-1.7,0.8-1.7,1.7c0,0.9,0.8,1.7,1.7,1.7c0.9,0,1.7-0.8,1.7-1.7C419.3,982.5,418.5,981.7,417.6,981.7z"></path> <path class="st3" d="M462.8,983.4c0,0.9-0.8,1.7-1.7,1.7c-0.9,0-1.7-0.8-1.7-1.7c0-0.9,0.8-1.7,1.7-1.7 C462,981.7,462.8,982.5,462.8,983.4z M467.7,981.7c-0.9,0-1.7,0.8-1.7,1.7c0,0.9,0.8,1.7,1.7,1.7c0.9,0,1.7-0.8,1.7-1.7 C469.4,982.5,468.7,981.7,467.7,981.7z M474.3,981.7c-0.9,0-1.7,0.8-1.7,1.7c0,0.9,0.8,1.7,1.7,1.7c0.9,0,1.7-0.8,1.7-1.7 C476.1,982.5,475.3,981.7,474.3,981.7z M481,981.7c-0.9,0-1.7,0.8-1.7,1.7c0,0.9,0.8,1.7,1.7,1.7c0.9,0,1.7-0.8,1.7-1.7 C482.7,982.5,481.9,981.7,481,981.7z"></path> </g> <g> <path class="st3" d="M1778,939.4l-90.8-84.3l-342.5,1.2l68.5,69.6c10.3,10.5,24.3,16.3,39,16.3h324.7 C1778.4,942.2,1779.1,940.4,1778,939.4z"></path> <path class="st3" d="M1344.8,732v124.3l68.4,69.2v-76.7c0-22.4-7.8-44.1-22.1-61.3L1344.8,732z"></path> <path class="st6" d="M1762.9,848.8v76.7h-349.8v-76.7c0-6.8-0.7-13.5-2.1-20.1c-1.1-5-2.5-9.8-4.4-14.6h349.8 C1760.7,825.2,1762.9,836.9,1762.9,848.8z"></path> <rect x="1485.1" y="883.8" class="st3" width="210.7" height="31.4"></rect> <path class="st4" d="M1756.4,814.2c-3.7-9.6-9-18.6-15.7-26.6l-58.2-55.6h-337.8l46.2,55.6c6.7,8,11.9,17,15.6,26.6H1756.4z"></path> <path class="st6" d="M1429.6,769c-3-5.7-6.5-11.1-10.7-16l-17.4-20.9v-4.2L1634,732l38.7,32.7v4.2H1429.6z"></path> <path class="st4" d="M1429.6,764.7c-3-5.7-6.5-11.1-10.7-16l-17.4-20.9H1634l38.7,37H1429.6z"></path> <path class="st6" d="M1485.1,844.6h-72c0.1,1.4,0.1,2.8,0.1,4.3v76.7c0,0,71.9,0,71.9,0V844.6z"></path> <path class="st6" d="M1695.7,925.5h67.2v-76.7c0-1.4,0-2.8-0.1-4.3h-67.1V925.5z"></path> <g> <path class="st5" d="M1604.2,860.2H1571c-4.9,0-9-4-9-9c0-5.1,4-9.1,9-9.1h33.2c4.9,0,9,4,9,9 C1613.2,856.2,1609.1,860.2,1604.2,860.2z M1571,847c-2.3,0-4.2,1.9-4.2,4.2c0,2.4,1.9,4.3,4.2,4.3h33.2c2.3,0,4.2-1.9,4.2-4.2 c0-2.4-1.9-4.3-4.2-4.3H1571z"></path> </g> <path class="st5" d="M1441.7,895c0,11.3-3.2,21.7-8.9,30.6h-19.8v-76.7c0-6.8-0.7-13.5-2.1-20.1h5.3c2.8,9.1,8.3,20.5,18.3,38.5 C1439.2,875.5,1441.7,884.9,1441.7,895z"></path> <path class="st5" d="M1761.4,831.7c-1.1-6-2.7-11.8-4.9-17.5h-349.8c2.2,5.6,3.8,11.5,4.9,17.5H1761.4z"></path> </g> <g> <path class="st3" d="M1339.7,1010.5H593c-4.2,0-6.2-5.1-3.2-7.9l127.8-122.8h497.4l127.8,122.8 C1345.9,1005.5,1343.9,1010.5,1339.7,1010.5z"></path> <polygon class="st3" points="1339.3,963.8 593.5,963.8 717.7,853.9 1215.1,853.9 "></polygon> <polygon class="st4" points="717.7,853.9 593.5,963.8 784.4,963.8 792.3,853.9 "></polygon> <path class="st6" d="M1325.6,977.6H607.2c-7.6,0-13.7-6.1-13.7-13.7v-0.1h745.8v0.1C1339.3,971.5,1333.1,977.6,1325.6,977.6z"></path> <path class="st5" d="M1137,859.6h26.8c1.8,0,3.8,0.5,4.4,1.2l2.7,3c0.6,0.7-0.4,1.3-2.3,1.3h-27.4c-1.9,0-3.8-0.6-4.4-1.3l-2.2-3 C1134,860.1,1135.1,859.6,1137,859.6z M1093.4,860.8l1.7,3c0.4,0.7,2.2,1.3,4.1,1.3h27.4c1.9,0,3-0.6,2.5-1.3l-2.1-3 c-0.5-0.7-2.4-1.2-4.2-1.2h-26.8C1094.2,859.6,1093,860.1,1093.4,860.8z M1052.3,860.8l1.1,3c0.3,0.7,2,1.3,3.9,1.3h27.4 c1.9,0,3.1-0.6,2.8-1.3l-1.6-3c-0.4-0.7-2.1-1.2-4-1.2h-26.8C1053.4,859.6,1052.1,860.1,1052.3,860.8z M1011.2,860.8l0.6,3 c0.1,0.7,1.8,1.3,3.7,1.3h27.4c1.9,0,3.2-0.6,3-1.3l-1-3c-0.2-0.7-1.9-1.2-3.8-1.2h-26.8C1012.5,859.6,1011.1,860.1,1011.2,860.8z M970.1,860.8l0,3c0,0.7,1.6,1.3,3.4,1.3h27.4c1.9,0,3.3-0.6,3.2-1.3l-0.5-3c-0.1-0.7-1.7-1.2-3.5-1.2h-26.8 C971.6,859.6,970.1,860.1,970.1,860.8z M929,860.8l-0.5,3c-0.1,0.7,1.3,1.3,3.2,1.3h27.4c1.9,0,3.4-0.6,3.4-1.3l0-3 c0-0.7-1.5-1.2-3.3-1.2h-26.8C930.7,859.6,929.1,860.1,929,860.8z M887.9,860.8l-1,3c-0.2,0.7,1.1,1.3,3,1.3h27.4 c1.9,0,3.5-0.6,3.7-1.3l0.6-3c0.1-0.7-1.3-1.2-3.1-1.2h-26.8C889.8,859.6,888.1,860.1,887.9,860.8z M846.8,860.8l-1.6,3 c-0.4,0.7,0.9,1.3,2.8,1.3h27.4c1.9,0,3.6-0.6,3.9-1.3l1.1-3c0.3-0.7-1-1.2-2.9-1.2h-26.8C848.9,859.6,847.2,860.1,846.8,860.8z M805.7,860.8l-2.1,3c-0.5,0.7,0.6,1.3,2.5,1.3h27.4c1.9,0,3.7-0.6,4.1-1.3l1.7-3c0.4-0.7-0.8-1.2-2.7-1.2h-26.8 C808.1,859.6,806.2,860.1,805.7,860.8z M764.6,860.8l-2.7,3c-0.6,0.7,0.4,1.3,2.3,1.3h27.4c1.9,0,3.8-0.6,4.4-1.3l2.2-3 c0.5-0.7-0.6-1.2-2.5-1.2H769C767.2,859.6,765.2,860.1,764.6,860.8z M723.5,860.8l-3.2,3c-0.7,0.7,0.2,1.3,2.1,1.3h27.4 c1.9,0,3.9-0.6,4.6-1.3l2.8-3c0.6-0.7-0.4-1.2-2.2-1.2h-26.8C726.3,859.6,724.2,860.1,723.5,860.8z M1175.6,860.8l2.8,3 c0.6,0.7,2.7,1.3,4.6,1.3h27.4c1.9,0,2.8-0.6,2.1-1.3l-3.2-3c-0.7-0.7-2.8-1.2-4.6-1.2h-26.8C1176,859.6,1175,860.1,1175.6,860.8z M1012.5,867.1l2.1,10.6c0.1,0.4,1,0.7,2,0.7h28.6c1,0,1.7-0.3,1.6-0.7l-3.5-10.6c-0.1-0.4-1-0.6-1.9-0.6h-27.2 C1013.1,866.5,1012.4,866.8,1012.5,867.1z M977.9,867.1l0.5,10.6c0,0.4,0.8,0.7,1.8,0.7h28.6c1,0,1.8-0.3,1.7-0.7l-1.9-10.6 c-0.1-0.4-0.9-0.6-1.8-0.6h-27.2C978.6,866.5,977.9,866.8,977.9,867.1z M943.3,867.1l-1,10.6c0,0.4,0.7,0.7,1.7,0.7h28.6 c1,0,1.8-0.3,1.8-0.7l-0.3-10.6c0-0.4-0.8-0.6-1.7-0.6h-27.2C944.2,866.5,943.4,866.8,943.3,867.1z M908.8,867.1l-2.6,10.6 c-0.1,0.4,0.6,0.7,1.6,0.7h28.6c1,0,1.8-0.3,1.9-0.7l1.2-10.6c0-0.4-0.7-0.6-1.7-0.6h-27.2C909.7,866.5,908.9,866.8,908.8,867.1z M874.2,867.1l-4.2,10.6c-0.2,0.4,0.5,0.7,1.5,0.7h28.6c1,0,1.9-0.3,2-0.7l2.8-10.6c0.1-0.4-0.6-0.6-1.6-0.6h-27.2 C875.2,866.5,874.4,866.8,874.2,867.1z M839.7,867.1l-5.7,10.6c-0.2,0.4,0.4,0.7,1.4,0.7h28.6c1,0,1.9-0.3,2.1-0.7l4.3-10.6 c0.1-0.4-0.5-0.6-1.5-0.6h-27.2C840.8,866.5,839.8,866.8,839.7,867.1z M805.1,867.1l-7.3,10.6c-0.3,0.4,0.3,0.7,1.3,0.7h28.6 c1,0,2-0.3,2.2-0.7l5.9-10.6c0.2-0.4-0.4-0.6-1.4-0.6h-27.2C806.3,866.5,805.3,866.8,805.1,867.1z M770.5,867.1l-8.9,10.6 c-0.3,0.4,0.2,0.7,1.2,0.7h28.6c1,0,2-0.3,2.3-0.7l7.5-10.6c0.3-0.4-0.3-0.6-1.3-0.6h-27.2C771.8,866.5,770.8,866.8,770.5,867.1z M716.8,867.1l-11.3,10.6c-0.4,0.4,0.1,0.7,1.1,0.7h48.7c1,0,2.1-0.3,2.4-0.7l9-10.6c0.3-0.4-0.2-0.6-1.2-0.6h-46.3 C718.2,866.5,717.1,866.8,716.8,867.1z M1114,932.9l8.7,17.6c0.3,0.7,1.6,1.2,2.9,1.2h37.1c1.3,0,2-0.5,1.6-1.2l-11-17.6 c-0.4-0.6-1.6-1.1-2.9-1.1h-34.8C1114.5,931.8,1113.7,932.3,1114,932.9z M1069.7,932.9l6.1,17.6c0.2,0.7,1.5,1.2,2.8,1.2h37.1 c1.3,0,2.1-0.5,1.8-1.2l-8.4-17.6c-0.3-0.6-1.5-1.1-2.7-1.1h-34.8C1070.4,931.8,1069.5,932.3,1069.7,932.9z M1025.4,932.9l3.5,17.6 c0.1,0.7,1.3,1.2,2.6,1.2h37.1c1.3,0,2.2-0.5,2-1.2l-5.8-17.6c-0.2-0.6-1.3-1.1-2.6-1.1h-34.8 C1026.2,931.8,1025.3,932.3,1025.4,932.9z M759.7,932.9l-12.2,17.6c-0.5,0.7,0.2,1.2,1.5,1.2h37.1c1.3,0,2.7-0.5,3-1.2l9.8-17.6 c0.3-0.6-0.4-1.1-1.6-1.1h-34.8C761.4,931.8,760.1,932.3,759.7,932.9z M715.4,932.9l-14.8,17.6c-0.5,0.7,0.1,1.2,1.4,1.2h37.1 c1.3,0,2.7-0.5,3.2-1.2l12.4-17.6c0.4-0.6-0.2-1.1-1.5-1.1h-34.8C717.3,931.8,715.9,932.3,715.4,932.9z M646.5,932.9l-18.8,17.6 c-0.7,0.7-0.2,1.2,1.1,1.2H692c1.3,0,2.8-0.5,3.4-1.2l15-17.6c0.5-0.6-0.1-1.1-1.3-1.1h-59.3C648.6,931.8,647.1,932.3,646.5,932.9z M723.6,892.6l11.1-11.9c0.4-0.4-0.1-0.7-1.2-0.7h-28.8c-1,0-2.2,0.3-2.6,0.7l-12.7,11.9c-0.5,0.4,0,0.8,1.1,0.8H721 C722,893.4,723.2,893,723.6,892.6z M762,892.6l9.4-11.9c0.3-0.4-0.3-0.7-1.3-0.7h-28.8c-1,0-2.1,0.3-2.5,0.7l-10.9,11.9 c-0.4,0.4,0.1,0.8,1.2,0.8h30.3C760.5,893.4,761.6,893,762,892.6z M800.3,892.6l7.6-11.9c0.3-0.4-0.4-0.7-1.4-0.7h-28.8 c-1,0-2.1,0.3-2.4,0.7l-9.2,11.9c-0.3,0.4,0.2,0.8,1.3,0.8h30.3C798.9,893.4,800,893,800.3,892.6z M838.6,892.6l5.9-11.9 c0.2-0.4-0.5-0.7-1.5-0.7h-28.8c-1,0-2,0.3-2.3,0.7l-7.4,11.9c-0.3,0.4,0.4,0.8,1.4,0.8h30.3C837.4,893.4,838.4,893,838.6,892.6z M876.9,892.6l4.1-11.9c0.1-0.4-0.6-0.7-1.6-0.7h-28.8c-1,0-2,0.3-2.2,0.7l-5.7,11.9c-0.2,0.4,0.5,0.8,1.5,0.8h30.3 C875.8,893.4,876.8,893,876.9,892.6z M915.3,892.6l2.3-11.9c0.1-0.4-0.7-0.7-1.7-0.7h-28.8c-1,0-1.9,0.3-2.1,0.7l-3.9,11.9 c-0.1,0.4,0.6,0.8,1.7,0.8h30.3C914.3,893.4,915.2,893,915.3,892.6z M953.6,892.6l0.6-11.9c0-0.4-0.8-0.7-1.8-0.7h-28.8 c-1,0-1.9,0.3-2,0.7l-2.1,11.9c-0.1,0.4,0.7,0.8,1.8,0.8h30.3C952.7,893.4,953.6,893,953.6,892.6z M991.9,892.6l-1.2-11.9 c0-0.4-0.9-0.7-1.9-0.7h-28.8c-1,0-1.8,0.3-1.8,0.7l-0.4,11.9c0,0.4,0.8,0.8,1.9,0.8h30.3C991.1,893.4,992,893,991.9,892.6z M1030.3,892.6l-2.9-11.9c-0.1-0.4-1-0.7-2-0.7h-28.8c-1,0-1.8,0.3-1.7,0.7l1.4,11.9c0.1,0.4,1,0.8,2,0.8h30.3 C1029.6,893.4,1030.4,893,1030.3,892.6z M1068.6,892.6l-4.7-11.9c-0.2-0.4-1.1-0.7-2.1-0.7H1033c-1,0-1.7,0.3-1.6,0.7l3.1,11.9 c0.1,0.4,1.1,0.8,2.1,0.8h30.3C1068,893.4,1068.8,893,1068.6,892.6z M1057.1,909.4l-4.4-13.4c-0.1-0.4-1.1-0.8-2.2-0.8h-30.5 c-1.1,0-1.9,0.4-1.8,0.8l2.6,13.4c0.1,0.5,1.1,0.9,2.2,0.9h32.3C1056.4,910.3,1057.2,909.9,1057.1,909.4z M1016.3,909.4l-2.4-13.4 c-0.1-0.4-1-0.8-2.1-0.8h-30.5c-1.1,0-1.9,0.4-1.9,0.8l0.7,13.4c0,0.5,1,0.9,2.1,0.9h32.3C1015.5,910.3,1016.3,909.9,1016.3,909.4z M975.4,909.4l-0.4-13.4c0-0.4-0.9-0.8-2-0.8h-30.5c-1.1,0-2,0.4-2,0.8l-1.3,13.4c0,0.5,0.8,0.9,2,0.9h32.3 C974.6,910.3,975.5,909.9,975.4,909.4z M934.6,909.4l1.5-13.4c0.1-0.4-0.8-0.8-1.8-0.8h-30.5c-1.1,0-2,0.4-2.1,0.8l-3.3,13.4 c-0.1,0.5,0.7,0.9,1.8,0.9h32.3C933.6,910.3,934.6,909.9,934.6,909.4z M893.8,909.4l3.5-13.4c0.1-0.4-0.7-0.8-1.7-0.8h-30.5 c-1.1,0-2.1,0.4-2.3,0.8l-5.3,13.4c-0.2,0.5,0.6,0.9,1.7,0.9h32.3C892.7,910.3,893.7,909.9,893.8,909.4z M853,909.4l5.5-13.4 c0.2-0.4-0.5-0.8-1.6-0.8h-30.5c-1.1,0-2.1,0.4-2.4,0.8l-7.3,13.4c-0.3,0.5,0.4,0.9,1.6,0.9h32.3 C851.7,910.3,852.8,909.9,853,909.4z M812.2,909.4l7.5-13.4c0.2-0.4-0.4-0.8-1.5-0.8h-30.5c-1.1,0-2.2,0.4-2.5,0.8l-9.3,13.4 c-0.3,0.5,0.3,0.9,1.4,0.9h32.3C810.8,910.3,811.9,909.9,812.2,909.4z M771.4,909.4l9.5-13.4c0.3-0.4-0.3-0.8-1.4-0.8H749 c-1.1,0-2.2,0.4-2.6,0.8l-11.3,13.4c-0.4,0.5,0.2,0.9,1.3,0.9h32.3C769.8,910.3,771,909.9,771.4,909.4z M730.6,909.4l11.5-13.4 c0.4-0.4-0.2-0.8-1.2-0.8h-52c-1.1,0-2.3,0.4-2.8,0.8l-14.3,13.4c-0.5,0.5,0,0.9,1.1,0.9h55C728.9,910.3,730.1,909.9,730.6,909.4z M1097.9,909.4l-6.4-13.4c-0.2-0.4-1.3-0.8-2.3-0.8h-30.5c-1.1,0-1.8,0.4-1.7,0.8l4.6,13.4c0.2,0.5,1.2,0.9,2.4,0.9h32.3 C1097.4,910.3,1098.1,909.9,1097.9,909.4z M1204.9,892.6l-10.9-11.9c-0.4-0.4-1.5-0.7-2.5-0.7h-28.8c-1,0-1.6,0.3-1.3,0.7l9.4,11.9 c0.3,0.4,1.5,0.8,2.5,0.8h30.3C1204.7,893.4,1205.3,893,1204.9,892.6z M1166.5,892.6l-9.2-11.9c-0.3-0.4-1.4-0.7-2.4-0.7h-28.8 c-1,0-1.6,0.3-1.4,0.7l7.6,11.9c0.3,0.4,1.4,0.8,2.4,0.8h30.3C1166.3,893.4,1166.9,893,1166.5,892.6z M1243.2,892.6l-12.7-11.9 c-0.4-0.4-1.6-0.7-2.6-0.7h-28.8c-1,0-1.5,0.3-1.2,0.7l11.1,11.9c0.4,0.4,1.6,0.8,2.7,0.8h30.3 C1243.2,893.4,1243.6,893,1243.2,892.6z M1191.2,877.7l-9.7-10.6c-0.3-0.4-1.4-0.6-2.3-0.6h-27.2c-1,0-1.5,0.3-1.2,0.6l8.3,10.6 c0.3,0.4,1.4,0.7,2.4,0.7h28.6C1191,878.4,1191.5,878.1,1191.2,877.7z M1258.2,950.5l-7.3-7.9c-0.6-0.6-2.1-1.1-3.3-1.1h-35.9 c-1.3,0-1.9,0.5-1.4,1.1l6.3,7.9c0.5,0.7,2,1.2,3.3,1.2h37.1C1258.2,951.6,1258.8,951.1,1258.2,950.5z M1211.3,950.5l-6.1-7.9 c-0.5-0.6-1.9-1.1-3.1-1.1h-35.9c-1.3,0-2,0.5-1.6,1.1l5.1,7.9c0.4,0.7,1.8,1.2,3.1,1.2h37.1 C1211.1,951.6,1211.8,951.1,1211.3,950.5z M1305.1,950.5l-8.5-7.9c-0.7-0.6-2.2-1.1-3.5-1.1h-35.9c-1.3,0-1.8,0.5-1.2,1.1l7.4,7.9 c0.6,0.7,2.2,1.2,3.5,1.2h37.1C1305.3,951.6,1305.8,951.1,1305.1,950.5z M1247,938.3l-6.8-7.3c-0.5-0.6-1.9-1-3.2-1h-34.6 c-1.2,0-1.8,0.5-1.4,1l5.8,7.3c0.5,0.6,1.9,1.1,3.1,1.1h35.7C1247,939.4,1247.6,938.9,1247,938.3z M1155,877.7l-8.2-10.6 c-0.3-0.4-1.3-0.6-2.2-0.6h-27.2c-1,0-1.5,0.3-1.3,0.6l6.8,10.6c0.2,0.4,1.3,0.7,2.3,0.7h28.6 C1154.8,878.4,1155.3,878.1,1155,877.7z M1227.3,877.7l-11.3-10.6c-0.4-0.4-1.5-0.6-2.4-0.6h-27.2c-1,0-1.5,0.3-1.1,0.6l9.9,10.6 c0.4,0.4,1.5,0.7,2.5,0.7h28.6C1227.2,878.4,1227.7,878.1,1227.3,877.7z M1068,880.7l4.9,11.9c0.2,0.4,1.2,0.8,2.2,0.8h17.5 c1.1,0,2.1,0.4,2.3,0.8l7.5,15.2c0.2,0.5,1.4,0.9,2.5,0.9h32.3c1.1,0,1.8-0.4,1.5-0.9l-10-16l-7.9-12.7c-0.2-0.4-1.3-0.7-2.3-0.7 h-49C1068.5,880,1067.8,880.3,1068,880.7z M1150.6,928.5l-9.6-15.3c-0.3-0.5-1.5-0.9-2.6-0.9h-85.5c-1.1,0-1.9,0.4-1.8,0.9 l4.6,15.3c0.2,0.6,1.3,1,2.5,1h90.8C1150.3,929.5,1151,929,1150.6,928.5z M1008.7,928.5l-2.2-15.3c-0.1-0.5-1.1-0.9-2.2-0.9h-32.5 c-1.1,0-2.1,0.4-2.1,0.9l0.2,15.3c0,0.6,1,1,2.2,1h34.5C1007.9,929.5,1008.8,929,1008.7,928.5z M965.1,928.5l0.1-15.3 c0-0.5-0.9-0.9-2.1-0.9h-32.5c-1.1,0-2.1,0.4-2.2,0.9l-2.1,15.3c-0.1,0.6,0.8,1,2.1,1h34.5C964.1,929.5,965.1,929,965.1,928.5z M921.4,928.5l2.3-15.3c0.1-0.5-0.8-0.9-1.9-0.9h-32.5c-1.1,0-2.2,0.4-2.3,0.9l-4.3,15.3c-0.2,0.6,0.7,1,1.9,1h34.5 C920.3,929.5,921.4,929,921.4,928.5z M877.8,928.5l4.6-15.3c0.2-0.5-0.6-0.9-1.8-0.9h-32.5c-1.1,0-2.2,0.4-2.5,0.9l-6.6,15.3 c-0.2,0.6,0.5,1,1.7,1h34.5C876.5,929.5,877.6,929,877.8,928.5z M834.1,928.5l6.9-15.3c0.2-0.5-0.5-0.9-1.7-0.9h-32.5 c-1.1,0-2.3,0.4-2.6,0.9l-8.9,15.3c-0.3,0.6,0.4,1,1.6,1h34.5C832.7,929.5,833.9,929,834.1,928.5z M790.5,928.5l9.1-15.3 c0.3-0.5-0.4-0.9-1.5-0.9h-32.5c-1.1,0-2.4,0.4-2.7,0.9l-11.1,15.3c-0.4,0.6,0.2,1,1.4,1h34.5C788.9,929.5,790.2,929,790.5,928.5z M746.9,928.5l11.4-15.3c0.4-0.5-0.2-0.9-1.4-0.9h-32.5c-1.1,0-2.4,0.4-2.9,0.9l-13.4,15.3c-0.5,0.6,0.1,1,1.3,1h34.5 C745.1,929.5,746.4,929,746.9,928.5z M703.2,928.5l13.7-15.3c0.5-0.5-0.1-0.9-1.2-0.9h-45.1c-1.1,0-2.5,0.4-3,0.9l-16.4,15.3 c-0.6,0.6-0.1,1,1.1,1h47.8C701.3,929.5,702.7,929,703.2,928.5z M1050.9,928.5l-4.4-15.3c-0.1-0.5-1.2-0.9-2.3-0.9h-32.5 c-1.1,0-2,0.4-1.9,0.9l2.4,15.3c0.1,0.6,1.1,1,2.4,1h34.5C1050.2,929.5,1051.1,929,1050.9,928.5z M1047,867.1l3.7,10.6 c0.1,0.4,1.1,0.7,2.1,0.7h64.8c1,0,1.6-0.3,1.4-0.7l-6.6-10.6c-0.2-0.4-1.2-0.6-2.1-0.6h-61.7 C1047.6,866.5,1046.9,866.8,1047,867.1z M804,932.9l-9.5,17.6c-0.4,0.7,0.4,1.2,1.7,1.2h225.4c1.3,0,2.3-0.5,2.1-1.2l-3.2-17.6 c-0.1-0.6-1.2-1.1-2.4-1.1H806.7C805.5,931.8,804.3,932.3,804,932.9z"></path> <path class="st7" d="M812.7,835H1104c-79-34.5-84.3-95.8-80-146.9H892.7C897,739.2,891.7,800.5,812.7,835z"></path> <path class="st6" d="M890.5,746.1c-7.1,34.1-27.5,66.9-77.8,88.9h185.7L890.5,746.1z"></path> <g> <path class="st2" d="M1115.4,837.4H801.2l10.5-4.6c77.1-33.7,83-92,78.6-144.5l-0.2-2.6h136.4l-0.2,2.6 c-4.4,52.6,1.5,110.9,78.6,144.5L1115.4,837.4z M823.4,832.6h269.9c-69.8-35.2-75.6-93.7-71.9-142.2h-126 C899,738.9,893.2,797.4,823.4,832.6z"></path> </g> <g> <rect x="803.4" y="835" class="st2" width="310" height="10.1"></rect> <path class="st2" d="M1115.7,847.5H801v-14.9h314.7V847.5z M805.8,842.7h305.2v-5.3H805.8V842.7z"></path> </g> <path class="st7" d="M1340.4,733.3H576.3c-7.8,0-14.1-6.3-14.1-14.1V250.4c0-7.8,6.3-14.1,14.1-14.1h764.1 c7.8,0,14.1,6.3,14.1,14.1v468.8C1354.6,727,1348.2,733.3,1340.4,733.3z"></path> <rect x="590.4" y="264.5" class="st5" width="735.9" height="372"></rect> <path class="st6" d="M1340.1,250.4h-140.4h-150.2c-0.2-2-0.3-4.1-0.3-6.1c0-2.7,0.1-5.4,0.4-8h149.9h140.5 c7.8,0,14.1,6.3,14.1,14.1v468.8c0,7.8-6.3,14.1-14.1,14.1H958.9c2.9-8,4.5-16.6,4.5-25.6c0-22.8-10.2-43.3-26.2-57.1h403V250.4z"></path> <g> <path class="st4" d="M1340.4,653H576.3c-1.3,0-2.4-1.1-2.4-2.4V250.4c0-1.3,1.1-2.4,2.4-2.4h764.1c1.3,0,2.4,1.1,2.4,2.4v400.2 C1342.8,651.9,1341.7,653,1340.4,653z M578.7,648.2H1338V252.8H578.7V648.2z"></path> </g> <g> <path class="st8" d="M1225.2,719h-17.4c-1.3,0-2.4-1.1-2.4-2.4v-9c0-1.3,1.1-2.4,2.4-2.4h17.4c1.3,0,2.4,1.1,2.4,2.4v9 C1227.6,718,1226.5,719,1225.2,719z M1210.2,714.3h12.6V710h-12.6V714.3z"></path> </g> <g> <path class="st8" d="M1293.7,719h-63.1c-1.3,0-2.4-1.1-2.4-2.4v-9c0-1.3,1.1-2.4,2.4-2.4h63.1c1.3,0,2.4,1.1,2.4,2.4v9 C1296.1,718,1295.1,719,1293.7,719z M1233.1,714.3h58.3V710h-58.3V714.3z"></path> </g> <g> <path class="st2" d="M1340.4,735.7H576.3c-9.1,0-16.5-7.4-16.5-16.5V250.4c0-9.1,7.4-16.5,16.5-16.5h764.1 c9.1,0,16.5,7.4,16.5,16.5v468.8C1356.9,728.3,1349.5,735.7,1340.4,735.7z M576.3,238.6c-6.5,0-11.7,5.3-11.7,11.7v468.8 c0,6.5,5.3,11.7,11.7,11.7h764.1c6.5,0,11.7-5.3,11.7-11.7V250.4c0-6.5-5.3-11.7-11.7-11.7H576.3z"></path> </g> <path class="st9" d="M776.1,264.5L590.4,450.2v-51.8l133.9-133.9H776.1z M924.3,264.5h-104L590.4,494.4v104L924.3,264.5z"></path> </g> <g> <path class="st4" d="M1259.9,540.4H656.7V385.3h603.2V540.4z M661.5,535.7h593.6V390.1H661.5V535.7z"></path> </g> <rect x="1285.3" y="345" class="st10" width="178.4" height="122.8"></rect> <g> <g> <path class="st4" d="M785.9,500H488.3V293.5h297.6V500z M493.1,495.2h288V298.3h-288V495.2z"></path> </g> <g> <path class="st4" d="M785.9,315.8H488.3v-22.3h297.6V315.8z M493.1,311.1h288v-12.7h-288V311.1z"></path> </g> <g> <rect x="562.1" y="302.3" class="st4" width="153.7" height="4.8"></rect> </g> <g> <g> <rect x="771.8" y="299.9" transform="matrix(0.7071 -0.7071 0.7071 0.7071 10.9694 635.8421)" class="st4" width="2.4" height="9.6"></rect> </g> <g> <rect x="768.2" y="303.5" transform="matrix(0.7072 -0.7071 0.7071 0.7072 10.9463 635.7889)" class="st4" width="9.6" height="2.4"></rect> </g> </g> <g> <path class="st4" d="M508.1,304.7c0,1.4-1.1,2.5-2.5,2.5s-2.5-1.1-2.5-2.5s1.1-2.5,2.5-2.5S508.1,303.3,508.1,304.7z"></path> <path class="st4" d="M517.7,304.7c0,1.4-1.1,2.5-2.5,2.5s-2.5-1.1-2.5-2.5s1.1-2.5,2.5-2.5S517.7,303.3,517.7,304.7z"></path> <path class="st4" d="M527.3,304.7c0,1.4-1.1,2.5-2.5,2.5s-2.5-1.1-2.5-2.5s1.1-2.5,2.5-2.5S527.3,303.3,527.3,304.7z"></path> </g> </g> <g> <g> <path class="st4" d="M1398,407.7h-271.5V219.2H1398V407.7z M1131.2,402.9h262V224h-262V402.9z"></path> </g> <g> <path class="st4" d="M1398,239.9h-271.5v-20.7H1398V239.9z M1131.2,235.2h262V224h-262V235.2z"></path> </g> <g> <rect x="1193.9" y="227.2" class="st4" width="140" height="4.8"></rect> </g> <g> <g> <rect x="1384.9" y="225.2" transform="matrix(0.7071 -0.7071 0.7071 0.7071 243.6575 1047.3477)" class="st4" width="2.4" height="8.7"></rect> </g> <g> <rect x="1381.7" y="228.4" transform="matrix(0.7071 -0.7072 0.7072 0.7071 243.6995 1047.4063)" class="st4" width="8.7" height="2.4"></rect> </g> </g> <g> <circle class="st4" cx="1142.5" cy="229.6" r="2.3"></circle> <circle class="st4" cx="1151.2" cy="229.6" r="2.3"></circle> <circle class="st4" cx="1159.9" cy="229.6" r="2.3"></circle> </g> </g> <path class="st10" d="M162.6,890.3c25.4,3.4,130.8,17.4,185,20.8c0,0-61.8-49.9-176.6-24.9c0.1,0,0.2-0.1,0.3-0.1 C294.2,853.7,322,781,322,781L169.9,881.1c74.5-52,100.7-126.3,100.7-126.3c-20.3,14.2-66.6,72.9-93.4,108 c34.4-54.4,43.6-120.5,43.6-120.5c-30.5,34.9-60.1,134.6-63.4,146.1c-3.8,1.8-7.7,3.8-11.8,5.8c-0.9-0.1-1.9-0.2-2.7-0.3 c40.1-90.6,11.4-151.3,11.4-151.3C139,795.2,139.7,880,140,896.8c-8.1,4-16.9,8.2-26.1,12.6c-0.6,0-1.2,0-1.9-0.1 c6.3-18.9,23.3-83.4-5-155.1c0,0-8.4,92.8,2.4,157.3c-8.4,4-17.2,8.2-26.2,12.5c2.4-15.8,13.8-105.7-20.5-170.6 c0,0-7.7,79.8,19.5,171c-4.6,2.2-9.2,4.3-13.9,6.5c-0.1,0-0.2-0.1-0.3-0.1c0,0,0.1,0.1,0.2,0.2c-4.5,2.1-9.1,4.3-13.7,6.4 c16-89.9-30.7-170.6-30.7-170.6C19,839.3,47.4,922.6,53,938.2c-3.6,1.7-7.3,3.4-11,5.1c-1.1-13.4-9.4-76.8-66.9-144 c0,0,4.7,63.6,65.6,144.6c-2.6,1.2-5.2,2.4-7.9,3.6c-6.9-13.3-37.1-65.9-90.8-82.3v9.8c15.4,18,47.5,51.6,88.5,73.5 C1.2,962-29,975.5-58,987.8v4.3c26.2-11.1,53.5-23.2,80.2-35.3c-33.7,59.8-6.7,108.7-6.7,108.7c15.7-47.1,10.2-98.7,8.8-109.6 c2.9-1.4,5.9-2.7,8.8-4.1c-0.3,16.3,2,83.2,57.3,148c-0.4-2.2-14.6-72.9-55.5-148.8c2.5-1.1,4.9-2.2,7.3-3.4 c6.5,16.1,41.3,95.3,116,142.7c0,0-29.4-65.6-114.6-143.3c3.3-1.5,6.5-3,9.7-4.5c12.7,15.2,87.8,103.1,144.1,126.6 c0,0-53.6-78.3-142.9-127.2c5.7-2.6,11.3-5.3,16.8-7.9c18.5,18.2,112.4,108.4,161.3,112.8c1.2,0.1-82.6-76.6-159.6-113.6 c5.4-2.6,10.8-5.1,16.1-7.6c18.3,15,115,91.5,174,88.9c0,0-100.8-73-171.4-90.1c8.5-4,16.8-8,24.7-11.8 c22.7,13.8,112.9,66.1,181.5,67.4c0,0-110.2-62.2-176.2-70c9.5-4.6,18.5-8.9,26.8-13c15.1,8.1,56.6,29,99.5,39 c53.8,12.6,75.8,9.2,75.8,9.2s-115-41.7-171.1-50.2C156.2,893.4,159.5,891.8,162.6,890.3z M111.7,910.5c0.1-0.2,0.1-0.4,0.2-0.6 c0.1,0.1,0.3,0.2,0.5,0.3C112.2,910.3,112,910.4,111.7,910.5z M141.9,895.9c0.3-0.7,0.6-1.3,0.9-2c0.2,0.1,0.7,0.4,1.5,0.8 C143.5,895.2,142.7,895.6,141.9,895.9z"></path> <path class="st10" d="M1968.6,773.1c-3.8-38.4-20.1-197.9-34-278.4c0,0-51.6,108.1,25.1,267.7c-0.1-0.1-0.2-0.3-0.3-0.4 C1869,593,1752.7,577.6,1752.7,577.6l199.8,188.1c-102.3-91-220.3-103.6-220.3-103.6c27.9,24.9,130.2,72.3,190.9,99.3 c-91.8-31.4-191.9-21.9-191.9-21.9c61.7,32.5,218.2,41.1,236.4,42c4,4.9,8.2,10,12.6,15.3c0.2,1.4,0.4,2.8,0.6,4.1 c-146.9-27.1-225.9,36-225.9,36c82.5,3.9,206.5-26.7,231.1-33c8.7,10.6,17.9,21.9,27.6,33.8c0.1,0.9,0.4,1.8,0.5,2.8 c-30-2.6-130.3-5.1-225.7,61.5c0,0,138.9-20.1,229.8-58.5c8.8,10.9,18,22.3,27.4,34.1c-24.1,2.1-159.8,16.7-242.9,89.5 c0,0,119.6-16.5,243.9-88.2c4.7,5.9,9.6,12,14.4,18.1c0,0.2-0.1,0.3-0.1,0.5c0,0,0.1-0.1,0.2-0.3c4.7,5.9,9.4,11.8,14.2,17.9 c-137.4,8-239.4,104.5-239.4,104.5c107.9-18.1,220-88.8,241-102.5c3.8,4.7,7.5,9.5,11.3,14.3c-19.3,6.4-109.4,40.5-187.8,148.4 c0,0,91.6-29.1,189.2-146.7c2.7,3.4,5.4,6.8,8,10.3c-17.1,14.8-83.7,77.4-88.9,161.8l14.4-3.4c21-28.9,59.1-87.7,76.9-155.4 c29.9,38.2,60.2,77.9,88.3,116.1l6.4-1.5c-25.4-34.5-52.7-70.4-79.8-105.2c99.4,28.5,161.8-28.1,161.8-28.1 c-74.5-6.7-148.3,19.5-163.8,25.4c-3-3.8-6.1-7.7-9-11.5c24-5.2,121.2-32,197-135.6c-3.1,1.4-101.8,46.8-198.8,133.4 c-2.5-3.2-5-6.4-7.5-9.6c21.4-15.1,125.3-93.9,168.7-219.8c0,0-85.9,66.1-170.1,218c-3.3-4.3-6.7-8.5-10-12.7 c17.8-23.9,120.5-164.8,135.3-255.4c0,0-96.1,106-136.6,253.8c-5.8-7.4-11.6-14.7-17.4-21.9c20.2-33.5,119.7-202.7,109.1-275.9 c-0.3-1.8-83.5,147.9-110.9,273.6c-5.7-7.1-11.2-14.1-16.8-20.9c15.6-32.1,94-200.5,69.6-286.1c0,0-71.8,173.2-72.3,282.7 c-8.9-11.1-17.5-21.8-25.8-32.1c12.4-38.1,57.5-188.6,35.5-289.7c0,0-52.7,183.3-41.1,282.8c-10.1-12.4-19.6-24-28.4-34.7 c6.5-24.9,22.7-93.1,22.4-159.5c-0.3-83.2-13-114.4-13-114.4s-21,183.2-13.8,268.4C1975.4,781.4,1971.9,777.2,1968.6,773.1z M2015.9,840.6c-0.3,0-0.6-0.1-1-0.1c0.1-0.2,0.2-0.5,0.3-0.8C2015.5,840,2015.7,840.3,2015.9,840.6z M1984.1,801.5 c-1.1-0.2-2.1-0.4-3.2-0.6c0.1-0.4,0.4-1.2,0.7-2.5C1982.4,799.4,1983.2,800.4,1984.1,801.5z"></path> <g> <path class="st5" d="M179.7,558.7c6.1,7.9-5,23.5-27.1,42.7c-11.6,10.1-19.4,31.8-24.3,47.4c-4.9,15.6-19.1,34.2-37.1,43.2 c-18,9-52.4,14.4-40.5,29.2s73.3-43.5,95.6-53.2c22.3-9.7,43.9-3.1,53.3-1.5c9.4,1.5,31.8-0.8,43.9,0.2c12.1,1,23.2,6,23,10 s-15.6,4-33.3,17.2c-11.3,8.4-32.6,42-58.5,54c-25.9,12-57.6,15.4-72.6,15.8c-15,0.4-43.1-2.6-43.1,7.7c0,15.7,49.5,14.2,58.7,16.9 s23.7-1.6,36.8-2c13.1-0.4,24.1,10.4,38.5,16.9c14.4,6.5,32.5,6.3,32.5,6.3c-5.2,8-35.7,29.3-70,38.8c-26.7,7.4-40.8,4.2-67.6-5.6 c-25.4-9.3-45.3-29.7-48.8-30.5c-7.2-1.6-10,7.6,2.1,20.7c12.1,13.1,25.4,17.7,39.5,28.7c7.9,6.2,12.2,19.9,18.5,31.7 c4.9,9.4,15,14.7,11,19.7c-4,5-51.9,6.3-79.6-13.6C2.9,879.7,5.8,844.1-6.2,845.3c-11.9,1.2-1.7,40.6-15.3,43.9 c-11.8,2.9-31.3-25.6-31.4-55.4c-0.1-29.8,21.1-68.2,21.1-68.2s-1.1,0.3-2.9,0.9c30.8-37.4,64.8-77,90.3-102.1 C94.2,626.2,146.6,584.2,179.7,558.7z"></path> <path class="st2" d="M179.7,558.7c-33.1,25.5-85.5,67.5-124.1,105.6C30.1,689.5-3.8,729-34.7,766.5c-3.1,1.1-8.2,3.1-13.9,6.5 c-2.1,1.3-5.2,3.2-9.2,5.3V532.6c1.5,2.5,2.9,4.8,4,7c12,22.2,4,39.4,1.4,48.8c-2.6,9.4,9.6,18.2,11.1,32.2c1.5,14-5.8,52,4.7,52.1 c10.5,0.1,3.6-59.9,36.8-115.8c24.4-41.2,90.3-75,90.3-75c-8,10.6-3.5,69.2-11.4,90.5c-7.9,21.3-20.5,34.6-32.7,49.7 s-42.4,53.7-26.2,57.9c16.2,4.1,23-37.3,48.9-67.6c25.9-30.3,64-38.7,79.2-40.7c15.2-2.1,30.4-14,30.4-14 C179.2,558,179.4,558.3,179.7,558.7z"></path> </g> <g> <path class="st4" d="M818,506c-6.5-1.7-11.8-4-15.8-6.8l7.9-17.8c3.8,2.5,8.2,4.6,13.3,6.1c5,1.5,10,2.3,14.9,2.3 c9.3,0,13.9-2.3,13.9-6.9c0-2.4-1.3-4.2-4-5.4c-2.6-1.2-6.9-2.4-12.7-3.7c-6.4-1.4-11.8-2.9-16.1-4.4c-4.3-1.6-8-4.1-11.1-7.6 c-3.1-3.5-4.6-8.2-4.6-14.1c0-5.2,1.4-9.9,4.3-14.1c2.8-4.2,7.1-7.5,12.7-9.9c5.6-2.4,12.6-3.7,20.8-3.7c5.6,0,11.1,0.6,16.6,1.9 c5.4,1.3,10.2,3.1,14.4,5.5l-7.4,17.9c-8.1-4.4-16-6.6-23.6-6.6c-4.8,0-8.3,0.7-10.5,2.1c-2.2,1.4-3.3,3.3-3.3,5.5 c0,2.3,1.3,4,3.9,5.1c2.6,1.1,6.8,2.3,12.6,3.5c6.5,1.4,11.9,2.9,16.1,4.4c4.3,1.6,8,4.1,11.1,7.6c3.1,3.5,4.7,8.1,4.7,14.1 c0,5.1-1.4,9.7-4.3,13.9c-2.8,4.1-7.1,7.5-12.8,9.9c-5.7,2.5-12.6,3.7-20.7,3.7C831.2,508.6,824.5,507.7,818,506z"></path> <path class="st4" d="M964,506.8l-0.2-45.2l-21.9,36.8h-10.7l-21.8-35.6v44H887v-85.3h19.9l30,49.2l29.2-49.2H986l0.2,85.3H964z"></path> <path class="st4" d="M1080.3,506.8l-0.2-45.2l-21.9,36.8h-10.7l-21.8-35.6v44h-22.3v-85.3h19.9l30,49.2l29.2-49.2h19.9l0.2,85.3 H1080.3z"></path> </g> </svg> 